<svg clip-rule="evenodd" fill-rule="evenodd" stroke-linejoin="round" stroke-miterlimit="1.41421" viewBox="0 0 154 28" xmlns="http://www.w3.org/2000/svg"><g fill="#fff" fill-opacity=".039216"><path d="m87.633 14.058c-3.394-3.168-4.307-14.886-1.46-18.519 2.847-3.632 15.404-4.652 18.798-1.484 3.394 3.169 4.301 14.886 1.454 18.518-2.847 3.633-15.398 4.653-18.792 1.485z"/><path d="m12.67 40.865c-4.604-4.298-5.842-20.193-1.98-25.12 3.862-4.926 20.893-6.31 25.497-2.012 4.604 4.297 5.834 20.191 1.973 25.117-3.862 4.927-20.886 6.312-25.49 2.015z"/><path d="m50.591 4.608c-4.604-4.298-5.842-20.193-1.98-25.119 3.862-4.927 20.893-6.311 25.497-2.013s5.834 20.191 1.972 25.118c-3.861 4.926-20.885 6.311-25.489 2.014z"/><path d="m72.932 43.123c-5.418-5.058-6.875-23.765-2.33-29.563 4.544-5.798 24.589-7.427 30.008-2.369 5.418 5.058 6.866 23.763 2.321 29.562-4.545 5.798-24.58 7.428-29.999 2.37z"/><path d="m129.675 55.848c-5.674-5.297-7.2-24.886-2.44-30.958 4.759-6.072 25.75-7.778 31.424-2.481s7.19 24.885 2.431 30.957c-4.76 6.072-25.74 7.779-31.415 2.482z"/><path d="m144.795 29.288c-6.717-6.271-8.523-29.46-2.889-36.648s30.482-9.207 37.2-2.937c6.717 6.271 8.511 29.459 2.877 36.646-5.634 7.188-30.471 9.209-37.188 2.939z"/><path d="m-9.291 20.235c-5.537-5.168-7.025-24.282-2.382-30.206 4.644-5.925 25.125-7.589 30.661-2.421 5.537 5.168 7.016 24.281 2.372 30.205-4.644 5.925-25.115 7.59-30.651 2.422z"/><path d="m63.424 53.599c-4.604-4.297-5.842-20.192-1.98-25.119 3.862-4.926 20.893-6.31 25.497-2.013 4.604 4.298 5.834 20.192 1.972 25.118-3.861 4.927-20.885 6.312-25.489 2.014z"/></g></svg>